<svg width="168" height="40" viewBox="0 0 168 40" fill="none" xmlns="http://www.w3.org/2000/svg">
    <path d="M19.9953 0C14.0442 0 8.64925 2.54628 4.92285 6.50113C7.92622 10.0226 11.4301 13.0564 15.3234 15.4944L15.4902 15.6027C16.1577 16.0361 18.9942 17.3363 19.9397 15.061C20.7183 13.1648 21.497 10.456 23.7773 10.0226L23.9442 9.9684C24.6116 9.91422 25.3902 10.0226 25.9464 10.5102C26.3913 10.8352 26.7251 11.3228 26.8919 11.8646V11.9729C27.0588 12.3521 27.3368 12.623 27.7262 12.7856L28.1711 12.9481C28.338 13.0023 28.7273 13.1106 28.7273 13.1106C28.7829 13.1648 28.8385 13.1648 28.8385 13.219C28.8941 13.2731 28.7273 13.3273 28.7273 13.3273C27.7262 13.6524 27.3925 13.8691 27.0031 14.14L26.8363 14.2483C26.6694 14.3567 26.5582 14.5192 26.447 14.6817C26.447 14.6817 26.2801 14.8984 26.0576 15.7111C25.8908 16.4695 25.8908 17.0655 25.8908 17.0655C25.8908 19.2325 27.0588 21.1287 28.8941 22.158C28.8941 22.158 30.0621 22.9165 32.6762 23.4582C35.2902 24 36.7919 24 36.7919 24C37.8486 24 38.8497 23.9458 39.9065 23.8375C40.1846 22.5914 40.3514 21.2912 40.3514 19.8826C40.3514 8.88488 31.2301 0 19.9953 0Z" fill="#0C428C"/>
    <path d="M0.351318 20.5714C0.465028 25.969 2.85292 30.8158 6.49163 34.2857C8.76581 32.3029 11.836 30.926 11.7791 30.926C11.836 30.926 6.60533 28.3373 0.351318 20.5714Z" fill="#0C428C"/>
    <path d="M20.5933 34.5692C20.5391 36.7086 20.3764 38.3543 19.7798 39.9452C20.1052 39.9452 20.4306 40 20.8103 40C26.7764 40 32.0916 37.312 35.7798 33.1429C28.0781 35.2275 20.5933 34.5692 20.5933 34.5692Z" fill="#0C428C"/>
    <path d="M59.3205 17.2473C60.1714 16.6517 60.5968 15.8009 60.5968 14.6097C60.5968 13.8439 60.4266 13.1633 60.0012 12.6528C59.6609 12.1422 59.0653 11.8019 58.2995 11.4616C59.4056 10.7809 60.0012 9.93004 60.0012 8.73885C60.0012 7.888 59.746 7.12223 59.1504 6.52664C58.3846 5.76087 57.3636 5.42053 55.832 5.42053H49.9612V18.1833H55.9171C57.2785 18.0982 58.3846 17.8429 59.3205 17.2473ZM52.5988 7.80291H55.3215C55.9171 7.80291 56.3426 7.888 56.6829 8.14325C57.0232 8.31342 57.1934 8.65376 57.1934 9.07919C57.1934 10.0151 56.5127 10.4405 55.1514 10.4405H52.5988V7.80291ZM52.5137 12.8229H55.747C57.1934 12.8229 57.789 13.2483 57.789 14.2694C57.789 15.2053 57.1934 15.6307 55.832 15.6307H52.5137V12.8229Z" fill="#0C428C"/>
    <path d="M68.5949 18.3536C70.5518 18.3536 72.1685 17.6729 73.4447 16.3966C74.721 15.1203 75.4017 13.5888 75.4017 11.802C75.4017 10.0152 74.721 8.48371 73.4447 7.20744C72.1685 5.93117 70.5518 5.33557 68.5949 5.33557C66.6379 5.33557 65.0213 6.01625 63.745 7.29253C62.4688 8.5688 61.7881 10.1003 61.7881 11.8871C61.7881 13.6739 62.4688 15.2054 63.745 16.4817C65.0213 17.758 66.6379 18.3536 68.5949 18.3536ZM65.8722 8.99422C66.6379 8.22846 67.4888 7.88812 68.5949 7.88812C69.701 7.88812 70.6369 8.22846 71.3176 8.99422C72.0834 9.75999 72.4237 10.6959 72.4237 11.802C72.4237 12.9081 72.0834 13.8441 71.3176 14.6098C70.5518 15.3756 69.701 15.7159 68.5949 15.7159C67.4888 15.7159 66.5528 15.3756 65.8722 14.6098C65.1064 13.8441 64.7661 12.9081 64.7661 11.802C64.7661 10.6959 65.1064 9.6749 65.8722 8.99422Z" fill="#0C428C"/>
    <path d="M79.826 17.4175C80.3365 16.907 80.847 15.9711 81.1023 14.6097C81.4426 13.2484 81.5277 11.2914 81.5277 8.82393V7.888H85.1864V18.0982H87.9942V5.42053H78.8901V8.05817C78.8901 9.75987 78.805 11.0361 78.7199 12.1422C78.6348 13.2483 78.4647 14.0141 78.2945 14.5246C78.0392 15.0351 77.8691 15.3755 77.5287 15.6307C77.2735 15.8009 76.9331 15.886 76.5077 15.886C76.4226 15.886 76.3375 15.8009 76.0823 15.8009L75.9121 18.0982C76.3375 18.1833 76.848 18.2684 77.3586 18.2684C78.4647 18.1833 79.2304 17.928 79.826 17.4175Z" fill="#0C428C"/>
    <path d="M96.758 18.3536C98.7149 18.3536 100.332 17.6729 101.608 16.3966C102.884 15.1203 103.565 13.5888 103.565 11.802C103.565 10.0152 102.884 8.48371 101.608 7.20744C100.332 5.93117 98.7149 5.33557 96.758 5.33557C94.801 5.33557 93.1844 6.01625 91.9081 7.29253C90.6319 8.5688 89.9512 10.1003 89.9512 11.8871C89.9512 13.6739 90.6319 15.2054 91.9081 16.4817C93.1844 17.758 94.801 18.3536 96.758 18.3536ZM93.9502 8.99422C94.7159 8.22846 95.6519 7.88812 96.6729 7.88812C97.779 7.88812 98.7149 8.22846 99.3956 8.99422C100.161 9.75999 100.502 10.6959 100.502 11.802C100.502 12.9081 100.161 13.8441 99.3956 14.6098C98.6298 15.3756 97.779 15.7159 96.6729 15.7159C95.5668 15.7159 94.6308 15.3756 93.9502 14.6098C93.1844 13.8441 92.8441 12.9081 92.8441 11.802C92.9292 10.6959 93.2695 9.6749 93.9502 8.99422Z" fill="#0C428C"/>
    <path d="M108.245 12.9931H113.435V18.0982H116.243V5.42053H113.435V10.4405H108.245V5.42053H105.437V18.0982H108.245V12.9931Z" fill="#0C428C"/>
    <path d="M121.603 18.0982H124.326V7.97308H128.239V5.42053H117.689V7.97308H121.603V18.0982Z" fill="#0C428C"/>
    <path d="M137.854 1.93188H135.217V4.39935H137.854V1.93188Z" fill="#0C428C"/>
    <path d="M139.64 15.5456H132.664V12.908H138.619V10.4405H132.664V7.888H139.47V5.42053H129.856V18.0982H139.64V15.5456Z" fill="#0C428C"/>
    <path d="M134.025 1.93188H131.388V4.39935H134.025V1.93188Z" fill="#0C428C"/>
    <path d="M144.32 14.2694H146.362C147.809 14.2694 149.085 13.929 150.021 13.1633C151.042 12.3975 151.468 11.2914 151.468 9.84495C151.468 8.48359 151.042 7.46257 150.191 6.61172C149.34 5.84596 148.149 5.42053 146.618 5.42053H141.427V18.0982H144.235V14.2694H144.32ZM144.32 7.97308H146.448C147.213 7.97308 147.724 8.14325 148.149 8.48359C148.575 8.82393 148.745 9.24936 148.745 9.84495C148.745 10.4405 148.575 10.9511 148.149 11.2914C147.724 11.6317 147.213 11.8019 146.533 11.8019H144.32V7.97308Z" fill="#0C428C"/>
    <path d="M158.53 9.67478H155.807V5.42053H152.999V18.0982H158.275C159.806 18.0982 160.997 17.6728 161.848 16.9921C162.699 16.2263 163.124 15.2053 163.124 13.929C163.124 12.6528 162.699 11.6317 161.933 10.9511C161.167 10.1002 160.061 9.67478 158.53 9.67478ZM158.275 15.5456H155.807V12.0572H158.275C159.721 12.0572 160.402 12.5677 160.317 13.7589C160.402 14.95 159.721 15.5456 158.275 15.5456Z" fill="#0C428C"/>
    <path d="M167.379 5.42053H164.571V18.0982H167.379V5.42053Z" fill="#0C428C"/>
    <path d="M49.8762 36.5616H52.684V26.3514H57.8742V36.4766H60.5969V23.7989H49.8762V36.5616Z" fill="#0C428C"/>
    <path d="M68.5949 36.7315C70.5518 36.7315 72.1685 36.0508 73.4447 34.7745C74.721 33.4983 75.4017 31.9667 75.4017 30.18C75.4017 28.3932 74.721 26.8616 73.4447 25.5854C72.1685 24.3091 70.5518 23.7135 68.5949 23.7135C66.6379 23.7135 65.0213 24.3942 63.745 25.6705C62.4688 26.9467 61.7881 28.4783 61.7881 30.265C61.7881 32.0518 62.4688 33.5834 63.745 34.8596C65.0213 36.1359 66.6379 36.7315 68.5949 36.7315ZM65.8722 27.3722C66.6379 26.6064 67.4888 26.2661 68.5949 26.2661C69.701 26.2661 70.6369 26.6064 71.3176 27.3722C72.0834 28.1379 72.4237 29.0739 72.4237 30.18C72.4237 31.2861 72.0834 32.222 71.3176 32.9878C70.5518 33.7535 69.701 34.0939 68.5949 34.0939C67.4888 34.0939 66.5528 33.7535 65.8722 32.9878C65.1064 32.222 64.7661 31.201 64.7661 30.18C64.7661 29.0739 65.1064 28.1379 65.8722 27.3722Z" fill="#0C428C"/>
    <path d="M86.0371 35.4555C86.8879 34.7749 87.3134 33.7538 87.3134 32.4776C87.3134 31.2864 86.973 30.3504 86.2073 29.5847C85.4415 28.8189 84.3354 28.4786 82.8889 28.4786H79.5706V26.3514H86.3774V23.7989H76.6777V36.5616H82.5486C83.995 36.5616 85.1862 36.1362 86.0371 35.4555ZM79.4855 30.8609H82.5486C83.8249 30.8609 84.5056 31.3715 84.5056 32.3925C84.5056 33.4986 83.8249 34.0091 82.5486 34.0091H79.4855V30.8609Z" fill="#0C428C"/>
    <path d="M98.885 34.0942H91.9931V31.3715H97.9491V28.8189H91.9931V26.2664H98.7148V23.7989H89.1853V36.5616H98.885V34.0942Z" fill="#0C428C"/>
    <path d="M102.714 23.8837V25.3301C102.714 27.3722 102.629 29.0739 102.373 30.3501C102.118 31.6264 101.778 32.8176 101.267 33.9237H100.076V39.1139H102.629L102.799 36.4762H110.712V39.1139H113.094L113.435 33.9237H111.903V23.7135H102.714V23.8837ZM109.18 34.0088H104.245C105.011 32.1369 105.351 30.0949 105.351 27.6274V26.3511H109.095V34.0088H109.18Z" fill="#0C428C"/>
    <path d="M115.562 23.7989V36.4765H120.837C122.369 36.4765 123.475 36.0511 124.411 35.3704C125.261 34.6047 125.687 33.5837 125.687 32.3074C125.687 31.0311 125.261 30.0101 124.496 29.3294C123.73 28.5636 122.539 28.2233 121.092 28.2233H118.455V23.9691H115.562V23.7989ZM120.752 30.5206C122.198 30.5206 122.879 31.1162 122.794 32.2223C122.794 33.4135 122.113 34.0091 120.752 34.0091H118.284V30.5206H120.752Z" fill="#0C428C"/>
    <path d="M129.856 23.7989H127.048V36.4766H129.856V23.7989Z" fill="#0C428C"/>
</svg>
