<svg width="24" height="24" viewBox="0 0 24 24" fill="none" xmlns="http://www.w3.org/2000/svg">
<path d="M12 23C12 23 21 17 21 10C21 7.61305 20.0518 5.32387 18.364 3.63604C16.6761 1.94821 14.3869 1 12 1C9.61305 1 7.32387 1.94821 5.63604 3.63604C3.94821 5.32387 3 7.61305 3 10C3 17 12 23 12 23Z" stroke="url(#paint0_linear_45_21255)" stroke-width="2" stroke-linecap="round" stroke-linejoin="round"/>
<path d="M12 13C13.6569 13 15 11.6569 15 10C15 8.34315 13.6569 7 12 7C10.3431 7 9 8.34315 9 10C9 11.6569 10.3431 13 12 13Z" stroke="url(#paint1_linear_45_21255)" stroke-width="2" stroke-linecap="round" stroke-linejoin="round"/>
<defs>
<linearGradient id="paint0_linear_45_21255" x1="21" y1="12" x2="3" y2="12" gradientUnits="userSpaceOnUse">
<stop stop-color="#FCB16D"/>
<stop offset="1" stop-color="#FC857F"/>
</linearGradient>
<linearGradient id="paint1_linear_45_21255" x1="15" y1="10" x2="9" y2="10" gradientUnits="userSpaceOnUse">
<stop stop-color="#FCB16D"/>
<stop offset="1" stop-color="#FC857F"/>
</linearGradient>
</defs>
</svg>
